<svg xmlns="http://www.w3.org/2000/svg" xml:space="preserve" viewBox="0 0 548 548">
    <path d="M2054 4109a2054 2054 0 1 0 0-4109 2054 2054 0 0 0 0 4109" style="fill:#cc499c;fill-opacity:1;fill-rule:evenodd;stroke:none" transform="matrix(.133 0 0 -.133 0 548)"/>
    <path d="M1646 1370a526 526 0 0 0-124-506c-119-130-286-180-357-138-78 45-39 228 100 375 148 157 363 258 363 258l-1 1 19 10zm1697 1859c-93 365-698 485-1271 282-340-121-709-311-974-559-316-295-366-552-345-659 73-379 591-626 805-810v-1c-63-31-523-264-631-502-114-251 18-431 105-456 270-75 548 60 697 283a708 708 0 0 1 69 629c86 23 187 33 314 18 361-42 431-267 418-361-14-95-89-146-114-162-26-16-33-21-31-33 3-17 14-16 36-12 30 5 189 76 196 250 9 221-203 468-577 461-154-2-251-17-322-43l-15 18c-232 247-660 421-642 753 7 121 49 439 823 825 633 315 1141 228 1229 36 125-275-272-787-930-861-251-28-383 69-416 106-34 38-39 39-52 32-21-11-8-45 0-65 19-51 100-142 238-187 121-40 415-62 771 76 399 154 710 584 619 942" style="fill:#fff;fill-opacity:1;fill-rule:nonzero;stroke:none" transform="matrix(.133 0 0 -.133 0 548)"/>
</svg>