<svg xmlns="http://www.w3.org/2000/svg" viewBox="0 0 107 128"><path d="M94 23a34 34 0 0 0-46-10L22 30A30 30 0 0 0 9 50a32 32 0 0 0 3 20 30 30 0 0 0-5 11 32 32 0 0 0 6 24c10 15 31 19 46 10l26-17a30 30 0 0 0 13-20 32 32 0 0 0-3-20 30 30 0 0 0 5-11 32 32 0 0 0-6-24" style="fill:#ff3e00"/><path d="M46 107a21 21 0 0 1-22-9 19 19 0 0 1-4-14 18 18 0 0 1 1-3v-1l2 1a34 34 0 0 0 10 5h1v1a6 6 0 0 0 1 4 6 6 0 0 0 7 3 6 6 0 0 0 1-1l26-17a5 5 0 0 0 3-3 6 6 0 0 0-1-5 6 6 0 0 0-7-2 6 6 0 0 0-2 0l-10 7a19 19 0 0 1-5 2 21 21 0 0 1-22-8 19 19 0 0 1-3-15 18 18 0 0 1 8-12l26-16a19 19 0 0 1 5-3 21 21 0 0 1 22 9 19 19 0 0 1 4 14 18 18 0 0 1-1 3v1l-2-1a34 34 0 0 0-10-5h-1v-1a6 6 0 0 0-1-4 6 6 0 0 0-7-3 6 6 0 0 0-1 1L38 52a5 5 0 0 0-3 3 6 6 0 0 0 1 5 6 6 0 0 0 7 2 6 6 0 0 0 2 0l10-7a19 19 0 0 1 5-2 21 21 0 0 1 22 8 19 19 0 0 1 3 15 18 18 0 0 1-8 12l-26 16a19 19 0 0 1-5 3" style="fill:#fff"/></svg>